<svg width="220" height="220" viewBox="0 0 220 220" xmlns="http://www.w3.org/2000/svg">
  <rect width="220" height="220" fill="transparent"/>

  <!-- Input prompt box -->
  <rect x="30" y="20" width="160" height="30" rx="5" ry="5" fill="white"/>
  <!-- Simulated input cursor -->
  <rect x="50" y="27" width="2" height="16" fill="black"/>

  <!-- Arrow from prompt to bubble -->
  <line x1="110" y1="50" x2="110" y2="60" stroke="white" stroke-width="2"/>
  <polygon points="106,60 114,60 110,66" fill="white"/>

  <!-- Chat bubble -->
  <rect x="20" y="70" width="180" height="100" rx="10" ry="10" fill="white"/>
  <polygon points="70,170 80,150 90,170" fill="white"/>

  <!-- Happy face -->
  <circle cx="60" cy="120" r="12" fill="black"/>
  <circle cx="56" cy="116" r="2" fill="white"/>
  <circle cx="64" cy="116" r="2" fill="white"/>
  <path d="M55 123 Q60 128 65 123" stroke="white" stroke-width="2" fill="none"/>

  <!-- Neutral face -->
  <circle cx="110" cy="120" r="12" fill="black"/>
  <circle cx="106" cy="116" r="2" fill="white"/>
  <circle cx="114" cy="116" r="2" fill="white"/>
  <line x1="105" y1="125" x2="115" y2="125" stroke="white" stroke-width="2"/>

  <!-- Sad face -->
  <circle cx="160" cy="120" r="12" fill="black"/>
  <circle cx="156" cy="116" r="2" fill="white"/>
  <circle cx="164" cy="116" r="2" fill="white"/>
  <path d="M155 128 Q160 123 165 128" stroke="white" stroke-width="2" fill="none"/>
</svg>
