<svg width="200" height="200" viewBox="0 0 200 200" xmlns="http://www.w3.org/2000/svg">
  <rect width="200" height="200" fill="transparent"/>

  <!-- Camera icon (classic box shape on a mount) -->
  <rect x="80" y="15" width="40" height="15" fill="white" rx="2"/>
  <circle cx="117" cy="22.5" r="3" fill="black"/> <!-- lens -->
  <line x1="100" y1="30" x2="100" y2="40" stroke="white" stroke-width="2"/>
  <line x1="100" y1="40" x2="95" y2="45" stroke="white" stroke-width="2"/>

  <!-- Row 1 (Top Row of 4) -->
  <!-- Spot 1 - Empty -->
  <rect x="20" y="60" width="30" height="50" stroke="white" stroke-width="2" fill="none" rx="4"/>
  <!-- Spot 2 - Occupied -->
  <rect x="60" y="60" width="30" height="50" stroke="white" stroke-width="2" fill="none" rx="4"/>
  <rect x="65" y="65" width="20" height="40" rx="3" fill="white"/>
  <!-- Spot 3 - Empty -->
  <rect x="100" y="60" width="30" height="50" stroke="white" stroke-width="2" fill="none" rx="4"/>
  <!-- Spot 4 - Occupied -->
  <rect x="140" y="60" width="30" height="50" stroke="white" stroke-width="2" fill="none" rx="4"/>
  <rect x="145" y="65" width="20" height="40" rx="3" fill="white"/>

  <!-- Row 2 (Bottom Row of 4) -->
  <!-- Spot 5 - Occupied -->
  <rect x="20" y="120" width="30" height="50" stroke="white" stroke-width="2" fill="none" rx="4"/>
  <rect x="25" y="125" width="20" height="40" rx="3" fill="white"/>
  <!-- Spot 6 - Empty -->
  <rect x="60" y="120" width="30" height="50" stroke="white" stroke-width="2" fill="none" rx="4"/>
  <!-- Spot 7 - Occupied -->
  <rect x="100" y="120" width="30" height="50" stroke="white" stroke-width="2" fill="none" rx="4"/>
  <rect x="105" y="125" width="20" height="40" rx="3" fill="white"/>
  <!-- Spot 8 - Empty -->
  <rect x="140" y="120" width="30" height="50" stroke="white" stroke-width="2" fill="none" rx="4"/>
</svg>
