<svg width="400" height="400" viewBox="0 0 200 200" xmlns="http://www.w3.org/2000/svg">
  <rect width="100%" height="100%" fill="transparent" />

  <!-- Building outlines -->
  <path d="M30 180 V100 H60 V90 H90 V70 H120 V90 H150 V180" 
        fill="none" stroke="white" stroke-width="4" stroke-linejoin="round" />

  <!-- Smart node wire -->
  <line x1="105" y1="70" x2="105" y2="55" stroke="white" stroke-width="2"/>
  <circle cx="105" cy="55" r="3" fill="white"/>

  <!-- Windows (dots) -->
  <g fill="white">
    <!-- Left building -->
    <circle cx="35" cy="110" r="2" />
    <circle cx="35" cy="120" r="2" />
    <circle cx="35" cy="130" r="2" />
    <circle cx="35" cy="140" r="2" />
    <circle cx="35" cy="150" r="2" />
    <circle cx="35" cy="160" r="2" />
    <circle cx="35" cy="170" r="2" />

    <!-- Middle building -->
    <circle cx="65" cy="95" r="2" />
    <circle cx="65" cy="105" r="2" />
    <circle cx="65" cy="115" r="2" />
    <circle cx="65" cy="125" r="2" />
    <circle cx="65" cy="135" r="2" />
    <circle cx="65" cy="145" r="2" />
    <circle cx="65" cy="155" r="2" />

    <circle cx="95" cy="75" r="2" />
    <circle cx="95" cy="85" r="2" />
    <circle cx="95" cy="95" r="2" />
    <circle cx="95" cy="105" r="2" />
    <circle cx="95" cy="115" r="2" />
    <circle cx="95" cy="125" r="2" />

    <!-- Right building -->
    <circle cx="125" cy="95" r="2" />
    <circle cx="125" cy="105" r="2" />
    <circle cx="125" cy="115" r="2" />
    <circle cx="125" cy="125" r="2" />
    <circle cx="125" cy="135" r="2" />
    <circle cx="125" cy="145" r="2" />
    <circle cx="125" cy="155" r="2" />
    <circle cx="125" cy="165" r="2" />
    <circle cx="125" cy="175" r="2" />
  </g>
</svg>
